:FULLY-SPECIFIED
:DEGREES
227
root -0.567874014377594 -0.567874014377594 -0.567874014377594 -0.5678755879732001 -0.5678755879732001 -0.5678755879732001
lhipjoint -9.671654586443837e-08 -1.5341245206083327e-07 1.0672170578144923e-06
lfemur 9.014714185467316 -3.229613967905509 -3.3721608696573218
ltibia -1.7509465279328604 1.3690257437591794e-07 1.6557849609509293e-06
lfoot -6.020635875995112 6.316950032840845e-07 5.835535615053651
ltoes -12.936232292710642 2.155954206603641e-06 1.3490335403646232e-07
rhipjoint 1.1005675908711953e-07 6.870210827458292e-07 -1.494104084495789e-06
rfemur 18.34472868604264 7.483088660321562 4.432954988331063
rtibia -23.95433573061743 -1.46077248210055e-06 7.437826355908495e-08
rfoot 3.6805037833220235 2.1966874940758317e-06 -12.712294295488018
rtoes 1.9978849737420898 1.386047054636874e-07 2.604471753118134e-07
lowerback 8.756642317867556 -0.6614900540156892 1.3723219282040793
upperback -3.3446612473983808 0.6772543440634902 3.3595523404494783
thorax -7.830361944708044 0.19020718804779443 2.345720041187805
lowerneck -11.457395592112624 -2.029057957114028 -1.9248847656666397
upperneck 23.5797988923852 -3.0151462414105206 2.3060364286666197
head 9.370881229926802 -1.331763944747426 0.7745436119620046
lclavicle -1.4085775951116125e-07 5.4855408257763046e-08 -1.0938974842598547e-06
lhumerus -136.28970398146114 26.756641111215895 11.885119113411747
lradius 45.14391333805125 6.740679303056634e-07 6.879742313727702e-07
lwrist 1.3183600674610894e-06 53.13911421441474 -3.1789007930291557e-07
lhand -4.562975323145072 2.6246558075710764e-07 -26.656099019086014
lfingers 7.125022823272814 9.845282338726802e-08 3.18924141240953e-07
lthumb 21.213298854421275 -1.2803152392500461e-07 2.20318914769186
rclavicle 1.398304276268298e-07 4.3880174074018323e-07 -1.3740421654916584e-06
rhumerus -120.8301172102709 -50.30301818044493 -2.2320332500002356
rradius 26.5180967544532 -1.6683880997095092e-06 -2.7773649753807443e-06
rwrist 1.4507721260933301e-05 -93.43921448744386 3.243056641886492e-05
rhand -6.972260092956778 2.0321462048512455e-07 -36.68780446630613
rfingers 7.125022396385991 5.1024341088409163e-08 -3.1892353057445414e-07
rthumb 18.897492480477187 1.5447771905696147e-06 -65.78980959509936
228
root -0.567874014377594 -0.567874014377594 -0.567874014377594 -0.5678755879732001 -0.5678755879732001 -0.5678755879732001
lhipjoint -9.671654586443837e-08 -1.5341245206083327e-07 1.0672170578144923e-06
lfemur 9.199143807209648 -2.8628468967409875 -2.987400732341459
ltibia -1.4926557741145408 9.080185915660156e-08 1.6639730827006388e-06
lfoot -5.616958889442665 -9.246015965641671e-07 5.22258120544519
ltoes -9.745682737989373 -5.468683377075799e-07 4.6038045569872824e-08
rhipjoint 1.1005675908711953e-07 6.870210827458292e-07 -1.494104084495789e-06
rfemur 16.79733396165062 7.578712162475387 3.620108689359832
rtibia -20.50582615264406 -7.611137579389563e-07 -6.313515542673613e-08
rfoot 3.498179353947938 6.387669284516624e-07 -11.360288231361613
rtoes 1.674994610918907 9.71496305454164e-07 1.6880620949692943e-07
lowerback 6.896223012021611 -0.46561394235891634 0.7850894774013573
upperback -3.313378767556311 0.7134816674212378 3.086987024874361
thorax -6.664186544877468 0.22325158989146324 2.3304885058952656
lowerneck -11.457395592112624 -2.029057957114028 -1.9248847656666397
upperneck 23.5797988923852 -3.0151462414105206 2.3060364286666197
head 9.370881229926802 -1.331763944747426 0.7745436119620046
lclavicle -1.4085775951116125e-07 5.4855408257763046e-08 -1.0938974842598547e-06
lhumerus -133.4242347189657 27.9323881673946 2.7635114002166725
lradius 43.64445800389626 -5.373889616460711e-07 9.817685301866681e-07
lwrist 1.5122470879541046e-06 56.121174806042305 -3.6464166323224665e-07
lhand -4.562975323145072 2.6246558075710764e-07 -26.656099019086014
lfingers 7.125022823272814 9.845282338726802e-08 3.18924141240953e-07
lthumb 21.213298854421275 -1.2803152392500461e-07 2.20318914769186
rclavicle 1.398304276268298e-07 4.3880174074018323e-07 -1.3740421654916584e-06
rhumerus -119.4639291121066 -53.404497799520996 0.5229242987763479
rradius 24.767345100355097 -6.484610555652636e-07 -2.576964178900092e-06
rwrist 7.572685538401542e-06 -97.03031621717228 1.692807431665163e-05
rhand -6.972260092956778 2.0321462048512455e-07 -36.68780446630613
rfingers 7.125022396385991 5.1024341088409163e-08 -3.1892353057445414e-07
rthumb 18.897492480477187 1.5447771905696147e-06 -65.78980959509936
229
root -0.567874014377594 -0.567874014377594 -0.567874014377594 -0.5678755879732001 -0.5678755879732001 -0.5678755879732001
lhipjoint -9.671654586443837e-08 -1.5341245206083327e-07 1.0672170578144923e-06
lfemur 9.127740155852688 -2.616072162028427 -2.391343570409375
ltibia -1.2240379877145735 7.68495036577072e-08 -3.5820691766733434e-08
lfoot -5.116304742620261 6.592010508358798e-07 4.629365188764419
ltoes -5.875725301903652 1.958859354992214e-07 1.902285174984588e-07
rhipjoint 1.1005675908711953e-07 6.870210827458292e-07 -1.494104084495789e-06
rfemur 14.590421293644043 7.667940046245141 2.6512457152632884
rtibia -16.211592306355957 -1.0113394447265443e-06 -8.851657718465137e-07
rfoot 3.2110241139754385 1.832757537203547e-06 -9.791637104498866
rtoes 1.011359770782128 -7.823532476573951e-07 1.0992686523392856e-07
lowerback 4.659746297079459 -0.17150603671880696 0.16656109982163672
upperback -3.2833255083214317 0.8172048667961985 2.6260032570816256
thorax -5.3289400574269825 0.28460034901651776 2.1034389306188785
lowerneck -11.457395592112624 -2.029057957114028 -1.9248847656666397
upperneck 23.5797988923852 -3.0151462414105206 2.3060364286666197
head 9.370881229926802 -1.331763944747426 0.7745436119620046
lclavicle -1.4085775951116125e-07 5.4855408257763046e-08 -1.0938974842598547e-06
lhumerus -130.35981570632612 28.27433646554941 -8.288573722914812
lradius 42.44245399300073 -2.5831135905434206e-06 1.0066991935573512e-06
lwrist 1.8140857983349847e-06 59.86958603763989 -4.374207693419292e-07
lhand -4.562975323145072 2.6246558075710764e-07 -26.656099019086014
lfingers 7.125022823272814 9.845282338726802e-08 3.18924141240953e-07
lthumb 21.213298854421275 -1.2803152392500461e-07 2.20318914769186
rclavicle 1.398304276268298e-07 4.3880174074018323e-07 -1.3740421654916584e-06
rhumerus -118.73027117259885 -54.830716430300534 4.051804819434964
rradius 23.384505000994317 -1.4410540608529743e-06 -2.4166621873993344e-06
rwrist 5.853574257965302e-06 -99.52397730200893 1.3085099557681343e-05
rhand -6.972260092956778 2.0321462048512455e-07 -36.68780446630613
rfingers 7.125022396385991 5.1024341088409163e-08 -3.1892353057445414e-07
rthumb 18.897492480477187 1.5447771905696147e-06 -65.78980959509936
230
root -0.567874014377594 -0.567874014377594 -0.567874014377594 -0.5678755879732001 -0.5678755879732001 -0.5678755879732001
lhipjoint -9.671654586443837e-08 -1.5341245206083327e-07 1.0672170578144923e-06
lfemur 8.746507170912903 -2.4119312546716745 -1.6680158651344466
ltibia -0.882077790089568 7.203231187047492e-08 8.280485057659185e-07
lfoot -4.53393634700194 2.8302934763902894e-06 4.031848287340656
ltoes -1.6723582646209878 1.76109908045255e-06 1.756639433900389e-08
rhipjoint 1.1005675908711953e-07 6.870210827458292e-07 -1.494104084495789e-06
rfemur 11.8426507046999 7.732389711253382 1.591090752885472
rtibia -11.327965214888174 -4.208606643374842e-07 -6.836347843431313e-08
rfoot 2.820760338292427 1.5127778589193472e-06 -8.101780001946011
rtoes 0.07658008097418297 1.713028431441285e-06 8.711960696023866e-09
lowerback 2.2867876749250544 0.2027883297978918 -0.44310166553498076
upperback -3.237344674828906 0.9856781527811743 2.0189768113425006
thorax -3.9390789504862505 0.3732971322174504 1.692876259609412
lowerneck -11.457395592112624 -2.029057957114028 -1.9248847656666397
upperneck 23.5797988923852 -3.0151462414105206 2.3060364286666197
head 9.370881229926802 -1.331763944747426 0.7745436119620046
lclavicle -1.4085775951116125e-07 5.4855408257763046e-08 -1.0938974842598547e-06
lhumerus -127.15328777781525 27.936240394086486 -20.403205975459205
lradius 41.72561539432414 -2.054453902942782e-06 2.0986958765618134e-06
lwrist 2.2884232404202236e-06 64.27227133511674 -5.518043550177116e-07
lhand -4.562975323145072 2.6246558075710764e-07 -26.656099019086014
lfingers 7.125022823272814 9.845282338726802e-08 3.18924141240953e-07
lthumb 21.213298854421275 -1.2803152392500461e-07 2.20318914769186
rclavicle 1.398304276268298e-07 4.3880174074018323e-07 -1.3740421654916584e-06
rhumerus -118.46845636133392 -54.68404153296909 7.875844174391159
rradius 22.42610310194188 -5.399985431511183e-07 -2.0063227979481316e-06
rwrist 5.272114309319874e-06 -100.83849501910207 1.1785313827782251e-05
rhand -6.972260092956778 2.0321462048512455e-07 -36.68780446630613
rfingers 7.125022396385991 5.1024341088409163e-08 -3.1892353057445414e-07
rthumb 18.897492480477187 1.5447771905696147e-06 -65.78980959509936
